# xmcd
#
# Track frame offsets: 
#        150
#        18638
#        35703
#        50167
#        71229
#        86369
#        105027
#        122183
#        144063
#        171672
#
# Disc length: 2655 seconds
#
# Revision: 1
# Processed by: cddbd v1.5.2PL0 Copyright (c) Steve Scherf et al.
# Submitted via: ExactAudioCopy v0.99pb5
#
DISCID=8a0a5d0a
DTITLE=The Crown - Doomsday King
DYEAR=2010
DGENRE=Melodic Death Metal
TTITLE0=Doomsday King
TTITLE1=Angel Of Death 1839
TTITLE2=Age Of Iron
TTITLE3=The Tempter And The Bible Black
TTITLE4=Soul Slasher
TTITLE5=Blood O.D.
TTITLE6=Through Eyes Of Oblivion
TTITLE7=Desolation Domain
TTITLE8=From The Ashes I Shall Return
TTITLE9=He Who Rises In Might - From Darkness To Light
EXTD=
EXTT0=
EXTT1=
EXTT2=
EXTT3=
EXTT4=
EXTT5=
EXTT6=
EXTT7=
EXTT8=
EXTT9=
PLAYORDER=
